# xmcd CD database file
#
# Track frame offsets:
#	150
#	24010
#	60195
#	89837
#	121520
#	152572
#	179195
#	203782
#	231542
#
# Disc length: 3400 seconds
#
# Revision: 2
# Processed by: cddbd v1.5.1PL0 Copyright (c) Steve Scherf et al.
# Submitted via: CDex 1.51
#
DISCID=6e0d4609
DTITLE=Kenny Burrell - Sunup To Sundown
DYEAR=1991
DGENRE=Jazz
TTITLE0=Out There
TTITLE1=Sunup To Sundown
TTITLE2=Roni's Decisiion
TTITLE3=I'm Old Fashioned
TTITLE4=Autumn Leaves
TTITLE5=Smile
TTITLE6=Love Dance
TTITLE7=Speak Low
TTITLE8=Luck To Be Me
EXTD=YEAR: 1991
EXTT0=
EXTT1=
EXTT2=
EXTT3=
EXTT4=
EXTT5=
EXTT6=
EXTT7=
EXTT8=
PLAYORDER=
